<mxfile host="c4be19b8-8c7b-4bdc-b59c-1983e24b1b83" modified="2020-08-15T10:19:17.627Z" agent="5.0 (Windows NT 10.0; Win64; x64) AppleWebKit/537.36 (KHTML, like Gecko) Code-Insiders/1.49.0-insider Chrome/83.0.4103.122 Electron/9.2.0 Safari/537.36" etag="Z0juvkRu7KHL9VCEB41q" version="13.1.3">
    <diagram id="JXITVCfKOtKycMDm1LI7" name="Page-1">
        <mxGraphModel dx="1039" dy="794" grid="1" gridSize="10" guides="1" tooltips="1" connect="1" arrows="1" fold="1" page="1" pageScale="1" pageWidth="2339" pageHeight="3300" math="0" shadow="0">
            <root>
                <mxCell id="0"/>
                <mxCell id="1" parent="0"/>
                <mxCell id="OqD8rDYY3VqrP0d_6eS--10" value="&lt;b&gt;&lt;i&gt;Exception Handling in Flutter commands&lt;/i&gt;&lt;/b&gt;" style="shape=umlFrame;whiteSpace=wrap;html=1;width=140;height=30;" parent="1" vertex="1">
                    <mxGeometry x="40" y="30" width="750" height="1020" as="geometry"/>
                </mxCell>
                <mxCell id="_gTDEj8WIaY1LaqUusKF-1" value="" style="strokeWidth=2;html=1;shape=mxgraph.flowchart.start_2;whiteSpace=wrap;" parent="1" vertex="1">
                    <mxGeometry x="433" y="60" width="30" height="30" as="geometry"/>
                </mxCell>
                <mxCell id="_gTDEj8WIaY1LaqUusKF-4" value="Exception occurs in the wrapped function in a Command." style="text;html=1;strokeColor=none;fillColor=none;align=center;verticalAlign=middle;whiteSpace=wrap;rounded=0;" parent="1" vertex="1">
                    <mxGeometry x="470" y="55" width="150" height="35" as="geometry"/>
                </mxCell>
                <mxCell id="_gTDEj8WIaY1LaqUusKF-6" value="null" style="edgeStyle=orthogonalEdgeStyle;rounded=0;orthogonalLoop=1;jettySize=auto;html=1;entryX=0.5;entryY=0;entryDx=0;entryDy=0;exitX=0;exitY=0.5;exitDx=0;exitDy=0;jumpStyle=none;" parent="1" source="_gTDEj8WIaY1LaqUusKF-5" target="_gTDEj8WIaY1LaqUusKF-7" edge="1">
                    <mxGeometry x="-0.337" y="10" relative="1" as="geometry">
                        <mxPoint x="204" y="691" as="targetPoint"/>
                        <mxPoint x="334" y="640" as="sourcePoint"/>
                        <mxPoint as="offset"/>
                    </mxGeometry>
                </mxCell>
                <mxCell id="_gTDEj8WIaY1LaqUusKF-16" value="true" style="edgeStyle=orthogonalEdgeStyle;rounded=0;jumpStyle=none;orthogonalLoop=1;jettySize=auto;html=1;entryX=0.5;entryY=0;entryDx=0;entryDy=0;" parent="1" source="_gTDEj8WIaY1LaqUusKF-5" target="_gTDEj8WIaY1LaqUusKF-25" edge="1">
                    <mxGeometry relative="1" as="geometry">
                        <mxPoint x="448" y="800" as="targetPoint"/>
                    </mxGeometry>
                </mxCell>
                <mxCell id="_gTDEj8WIaY1LaqUusKF-17" style="edgeStyle=orthogonalEdgeStyle;rounded=0;jumpStyle=none;orthogonalLoop=1;jettySize=auto;html=1;entryX=0.5;entryY=0;entryDx=0;entryDy=0;" parent="1" source="_gTDEj8WIaY1LaqUusKF-5" target="_gTDEj8WIaY1LaqUusKF-24" edge="1">
                    <mxGeometry relative="1" as="geometry">
                        <mxPoint x="693" y="740" as="targetPoint"/>
                    </mxGeometry>
                </mxCell>
                <mxCell id="_gTDEj8WIaY1LaqUusKF-18" value="false" style="edgeLabel;html=1;align=center;verticalAlign=middle;resizable=0;points=[];" parent="_gTDEj8WIaY1LaqUusKF-17" vertex="1" connectable="0">
                    <mxGeometry x="-0.1846" y="3" relative="1" as="geometry">
                        <mxPoint x="-58" y="13" as="offset"/>
                    </mxGeometry>
                </mxCell>
                <mxCell id="_gTDEj8WIaY1LaqUusKF-5" value="catchAlways" style="rhombus;whiteSpace=wrap;html=1;" parent="1" vertex="1">
                    <mxGeometry x="383" y="580" width="130" height="120" as="geometry"/>
                </mxCell>
                <mxCell id="_gTDEj8WIaY1LaqUusKF-8" style="edgeStyle=orthogonalEdgeStyle;rounded=0;orthogonalLoop=1;jettySize=auto;html=1;entryX=0.5;entryY=0;entryDx=0;entryDy=0;" parent="1" source="_gTDEj8WIaY1LaqUusKF-7" target="_gTDEj8WIaY1LaqUusKF-12" edge="1">
                    <mxGeometry relative="1" as="geometry">
                        <mxPoint x="170" y="830" as="targetPoint"/>
                    </mxGeometry>
                </mxCell>
                <mxCell id="_gTDEj8WIaY1LaqUusKF-11" value="false" style="edgeLabel;html=1;align=center;verticalAlign=middle;resizable=0;points=[];" parent="_gTDEj8WIaY1LaqUusKF-8" vertex="1" connectable="0">
                    <mxGeometry x="-0.2613" y="3" relative="1" as="geometry">
                        <mxPoint x="26" y="-16.5" as="offset"/>
                    </mxGeometry>
                </mxCell>
                <mxCell id="_gTDEj8WIaY1LaqUusKF-10" style="edgeStyle=orthogonalEdgeStyle;rounded=0;jumpStyle=none;orthogonalLoop=1;jettySize=auto;html=1;entryX=0;entryY=0.5;entryDx=0;entryDy=0;" parent="1" source="_gTDEj8WIaY1LaqUusKF-7" target="_gTDEj8WIaY1LaqUusKF-25" edge="1">
                    <mxGeometry relative="1" as="geometry">
                        <mxPoint x="423" y="840" as="targetPoint"/>
                    </mxGeometry>
                </mxCell>
                <mxCell id="_gTDEj8WIaY1LaqUusKF-14" value="true" style="edgeLabel;html=1;align=center;verticalAlign=middle;resizable=0;points=[];" parent="_gTDEj8WIaY1LaqUusKF-10" vertex="1" connectable="0">
                    <mxGeometry x="-0.6757" y="-1" relative="1" as="geometry">
                        <mxPoint x="2" y="-14.5" as="offset"/>
                    </mxGeometry>
                </mxCell>
                <mxCell id="_gTDEj8WIaY1LaqUusKF-7" value="catchAlwayDefault" style="rhombus;whiteSpace=wrap;html=1;" parent="1" vertex="1">
                    <mxGeometry x="237" y="691" width="120" height="125" as="geometry"/>
                </mxCell>
                <mxCell id="_gTDEj8WIaY1LaqUusKF-30" style="edgeStyle=orthogonalEdgeStyle;rounded=0;jumpStyle=none;orthogonalLoop=1;jettySize=auto;html=1;" parent="1" source="_gTDEj8WIaY1LaqUusKF-12" target="_gTDEj8WIaY1LaqUusKF-26" edge="1">
                    <mxGeometry relative="1" as="geometry"/>
                </mxCell>
                <mxCell id="_gTDEj8WIaY1LaqUusKF-12" value="Rethrow Exception" style="whiteSpace=wrap;html=1;aspect=fixed;" parent="1" vertex="1">
                    <mxGeometry x="130" y="860" width="80" height="80" as="geometry"/>
                </mxCell>
                <mxCell id="_gTDEj8WIaY1LaqUusKF-20" value="false" style="edgeStyle=orthogonalEdgeStyle;rounded=0;jumpStyle=none;orthogonalLoop=1;jettySize=auto;html=1;" parent="1" target="_gTDEj8WIaY1LaqUusKF-21" edge="1">
                    <mxGeometry x="0.2561" y="30" relative="1" as="geometry">
                        <mxPoint x="560" y="470" as="targetPoint"/>
                        <mxPoint x="525.5" y="445" as="sourcePoint"/>
                        <mxPoint x="1" as="offset"/>
                    </mxGeometry>
                </mxCell>
                <mxCell id="_gTDEj8WIaY1LaqUusKF-22" value="true" style="edgeStyle=orthogonalEdgeStyle;rounded=0;jumpStyle=none;orthogonalLoop=1;jettySize=auto;html=1;" parent="1" source="_gTDEj8WIaY1LaqUusKF-15" target="_gTDEj8WIaY1LaqUusKF-5" edge="1">
                    <mxGeometry x="-0.25" y="-18" relative="1" as="geometry">
                        <mxPoint as="offset"/>
                        <mxPoint x="460" y="500" as="sourcePoint"/>
                    </mxGeometry>
                </mxCell>
                <mxCell id="_gTDEj8WIaY1LaqUusKF-15" value="&lt;b&gt;&lt;i&gt;&lt;br&gt;globalExceptionHandler &lt;/i&gt;&lt;/b&gt;callback registered" style="rhombus;whiteSpace=wrap;html=1;" parent="1" vertex="1">
                    <mxGeometry x="370" y="360" width="155.5" height="140" as="geometry"/>
                </mxCell>
                <mxCell id="_gTDEj8WIaY1LaqUusKF-19" style="edgeStyle=orthogonalEdgeStyle;rounded=0;orthogonalLoop=1;jettySize=auto;html=1;entryX=0.5;entryY=0;entryDx=0;entryDy=0;" parent="1" source="_gTDEj8WIaY1LaqUusKF-1" target="OqD8rDYY3VqrP0d_6eS--1" edge="1">
                    <mxGeometry relative="1" as="geometry">
                        <mxPoint x="385" y="330" as="targetPoint"/>
                        <mxPoint x="385" y="110" as="sourcePoint"/>
                    </mxGeometry>
                </mxCell>
                <mxCell id="_gTDEj8WIaY1LaqUusKF-23" style="edgeStyle=orthogonalEdgeStyle;rounded=0;jumpStyle=none;orthogonalLoop=1;jettySize=auto;html=1;" parent="1" source="_gTDEj8WIaY1LaqUusKF-21" target="_gTDEj8WIaY1LaqUusKF-5" edge="1">
                    <mxGeometry relative="1" as="geometry">
                        <Array as="points">
                            <mxPoint x="643" y="560"/>
                            <mxPoint x="448" y="560"/>
                        </Array>
                    </mxGeometry>
                </mxCell>
                <mxCell id="_gTDEj8WIaY1LaqUusKF-21" value="call the global exception handler" style="whiteSpace=wrap;html=1;aspect=fixed;" parent="1" vertex="1">
                    <mxGeometry x="603" y="470" width="80" height="80" as="geometry"/>
                </mxCell>
                <mxCell id="_gTDEj8WIaY1LaqUusKF-27" style="edgeStyle=orthogonalEdgeStyle;rounded=0;jumpStyle=none;orthogonalLoop=1;jettySize=auto;html=1;entryX=0.5;entryY=0;entryDx=0;entryDy=0;" parent="1" source="_gTDEj8WIaY1LaqUusKF-24" target="_gTDEj8WIaY1LaqUusKF-26" edge="1">
                    <mxGeometry relative="1" as="geometry"/>
                </mxCell>
                <mxCell id="_gTDEj8WIaY1LaqUusKF-29" style="edgeStyle=orthogonalEdgeStyle;rounded=0;jumpStyle=none;orthogonalLoop=1;jettySize=auto;html=1;entryX=0.5;entryY=0;entryDx=0;entryDy=0;" parent="1" source="_gTDEj8WIaY1LaqUusKF-24" target="_gTDEj8WIaY1LaqUusKF-26" edge="1">
                    <mxGeometry relative="1" as="geometry">
                        <Array as="points">
                            <mxPoint x="560" y="810"/>
                            <mxPoint x="395" y="810"/>
                        </Array>
                    </mxGeometry>
                </mxCell>
                <mxCell id="_gTDEj8WIaY1LaqUusKF-24" value="Rethrow Exception" style="whiteSpace=wrap;html=1;aspect=fixed;" parent="1" vertex="1">
                    <mxGeometry x="573" y="740" width="80" height="80" as="geometry"/>
                </mxCell>
                <mxCell id="_gTDEj8WIaY1LaqUusKF-28" style="edgeStyle=orthogonalEdgeStyle;rounded=0;jumpStyle=none;orthogonalLoop=1;jettySize=auto;html=1;" parent="1" source="_gTDEj8WIaY1LaqUusKF-25" target="_gTDEj8WIaY1LaqUusKF-26" edge="1">
                    <mxGeometry relative="1" as="geometry"/>
                </mxCell>
                <mxCell id="_gTDEj8WIaY1LaqUusKF-25" value="Suppress the Exception" style="whiteSpace=wrap;html=1;aspect=fixed;" parent="1" vertex="1">
                    <mxGeometry x="408" y="770" width="80" height="80" as="geometry"/>
                </mxCell>
                <mxCell id="_gTDEj8WIaY1LaqUusKF-26" value="" style="ellipse;html=1;shape=endState;fillColor=#000000;strokeColor=#ff0000;" parent="1" vertex="1">
                    <mxGeometry x="433" y="1000" width="30" height="30" as="geometry"/>
                </mxCell>
                <mxCell id="OqD8rDYY3VqrP0d_6eS--3" value="true" style="edgeStyle=orthogonalEdgeStyle;rounded=0;orthogonalLoop=1;jettySize=auto;html=1;entryX=1;entryY=0.5;entryDx=0;entryDy=0;" parent="1" source="OqD8rDYY3VqrP0d_6eS--1" target="_gTDEj8WIaY1LaqUusKF-26" edge="1">
                    <mxGeometry x="-0.8486" y="10" relative="1" as="geometry">
                        <Array as="points">
                            <mxPoint x="720" y="220"/>
                            <mxPoint x="720" y="1015"/>
                        </Array>
                        <mxPoint as="offset"/>
                    </mxGeometry>
                </mxCell>
                <mxCell id="OqD8rDYY3VqrP0d_6eS--5" value="false" style="edgeStyle=orthogonalEdgeStyle;rounded=0;orthogonalLoop=1;jettySize=auto;html=1;" parent="1" source="OqD8rDYY3VqrP0d_6eS--1" target="_gTDEj8WIaY1LaqUusKF-15" edge="1">
                    <mxGeometry y="-18" relative="1" as="geometry">
                        <mxPoint as="offset"/>
                    </mxGeometry>
                </mxCell>
                <mxCell id="OqD8rDYY3VqrP0d_6eS--1" value="listeners registered for&amp;nbsp;&lt;br&gt;&lt;b&gt;&lt;i&gt;results &lt;/i&gt;&lt;/b&gt;or &lt;br&gt;&lt;b&gt;&lt;i&gt;thrownExceptions&lt;/i&gt;&lt;/b&gt;" style="rhombus;whiteSpace=wrap;html=1;" parent="1" vertex="1">
                    <mxGeometry x="359.5" y="150" width="177" height="140" as="geometry"/>
                </mxCell>
            </root>
        </mxGraphModel>
    </diagram>
</mxfile>